<svg viewBox="0 0 400 400" xmlns="http://www.w3.org/2000/svg">
  <!-- Background circle -->
  <circle cx="200" cy="200" r="180" fill="#1a1f36"/>
  
  <!-- Star shape behind bitcoin -->
  <path d="M200 20 L226 146 L346 146 L250 226 L276 346 L200 280 L124 346 L150 226 L54 146 L174 146 Z" 
        fill="#ffd700" opacity="0.3"/>
  
  <!-- Bitcoin symbol -->
  <g transform="translate(130, 100) scale(1.4)">
    <path d="M77.2,49.9c3.3-1.8,5.5-4.9,5.5-8.6c0-5.4-4.4-9.8-9.8-9.8h-1.6v-3.3c0-1.8-1.5-3.3-3.3-3.3
             s-3.3,1.5-3.3,3.3v3.3h-6.6v-3.3c0-1.8-1.5-3.3-3.3-3.3s-3.3,1.5-3.3,3.3v3.3h-9.8c-1.8,0-3.3,1.5-3.3,3.3
             c0,1.8,1.5,3.3,3.3,3.3h3.3v39.4h-3.3c-1.8,0-3.3,1.5-3.3,3.3c0,1.8,1.5,3.3,3.3,3.3h9.8v3.3c0,1.8,1.5,3.3,3.3,3.3
             s3.3-1.5,3.3-3.3v-3.3h6.6v3.3c0,1.8,1.5,3.3,3.3,3.3s3.3-1.5,3.3-3.3v-3.3h1.6c6.3,0,11.5-5.2,11.5-11.5
             c0-4.7-2.8-8.7-6.8-10.5C76.9,49.7,77.1,49.8,77.2,49.9z M58.9,38.1h13.1c3.6,0,6.6,2.9,6.6,6.6s-2.9,6.6-6.6,6.6H58.9V38.1z
             M73.6,74.2H58.9V57.9h14.8c4.5,0,8.2,3.7,8.2,8.2S78.1,74.2,73.6,74.2z" 
          fill="#ffd700"/>
  </g>
  
  <!-- Company name -->
  <text x="200" y="360" 
        font-family="Arial, sans-serif" 
        font-size="24" 
        fill="#ffffff" 
        text-anchor="middle" 
        font-weight="bold">STAR BITCOIN MINING</text>
</svg>
